<svg xmlns="http://www.w3.org/2000/svg" viewBox="0 0 1200 675" role="img" aria-labelledby="title desc">
  <title id="title">Proyecto PEF 2026</title>
  <desc id="desc">Representación visual de un tablero de presupuesto público</desc>
  <defs>
    <linearGradient id="bg" x1="0" y1="0" x2="1" y2="1">
      <stop offset="0" stop-color="#071d38"/>
      <stop offset="1" stop-color="#1b5d9a"/>
    </linearGradient>
  </defs>
  <rect width="1200" height="675" fill="url(#bg)"/>
  <text x="85" y="115" fill="#9fc8ff" font-family="Arial, sans-serif" font-size="25" font-weight="700" letter-spacing="3">POWER BI · FINANZAS PÚBLICAS</text>
  <text x="85" y="180" fill="#fff" font-family="Arial, sans-serif" font-size="52" font-weight="700">PEF 2026</text>
  <g transform="translate(85 235)">
    <rect width="1030" height="350" rx="18" fill="#fff" fill-opacity=".12" stroke="#fff" stroke-opacity=".2"/>
    <g fill="#fff" fill-opacity=".16">
      <rect x="35" y="35" width="290" height="80" rx="10"/>
      <rect x="370" y="35" width="290" height="80" rx="10"/>
      <rect x="705" y="35" width="290" height="80" rx="10"/>
      <rect x="35" y="150" width="470" height="165" rx="10"/>
      <rect x="540" y="150" width="455" height="165" rx="10"/>
    </g>
    <g fill="#75b3ff">
      <rect x="85" y="260" width="34" height="34" rx="4"/>
      <rect x="145" y="220" width="34" height="74" rx="4"/>
      <rect x="205" y="190" width="34" height="104" rx="4"/>
      <rect x="265" y="235" width="34" height="59" rx="4"/>
      <rect x="325" y="175" width="34" height="119" rx="4"/>
      <rect x="385" y="205" width="34" height="89" rx="4"/>
    </g>
    <circle cx="765" cy="230" r="62" fill="none" stroke="#75b3ff" stroke-width="28" stroke-dasharray="250 140"/>
  </g>
</svg>
